# xmcd
#
# Track frame offsets: 
#        150
#        17873
#        35370
#        52088
#        71145
#        91935
#        112853
#        132765
#        150885
#        169703
#        187793
#        207105
#        229898
#        247065
#        264405
#        283988
#
# Disc length: 4023 seconds
#
# Revision: 0
# Processed by: cddbd v1.5.2PL0 Copyright (c) Steve Scherf et al.
# Submitted via: ExactAudioCopy v0.95b4
#
DISCID=d70fb510
DTITLE=Various Artist - Unforgettable Love Songs
DYEAR=1900
DGENRE=Ballad
TTITLE0=Have I Told You Lately
TTITLE1=You Were There
TTITLE2=Save The Best For Last
TTITLE3=Heaven Knows
TTITLE4=You Mean The World To Me
TTITLE5=Sometimes When We Touch
TTITLE6=Wind Beneath My Wings
TTITLE7=Beauty And The Beast
TTITLE8=Everything I Do (I Do It For You)
TTITLE9=When You Tell Me That You Love Me
TTITLE10=How Am I Supposed To Live Without You
TTITLE11=Shower Me With Your Love
TTITLE12=Only Reminds Me Of You
TTITLE13=Masterpiece
TTITLE14=Hero
TTITLE15=Goodbye
EXTD=
EXTT0=
EXTT1=
EXTT2=
EXTT3=
EXTT4=
EXTT5=
EXTT6=
EXTT7=
EXTT8=
EXTT9=
EXTT10=
EXTT11=
EXTT12=
EXTT13=
EXTT14=
EXTT15=
PLAYORDER=
